<svg width="20" height="20" viewBox="0 0 20 20" fill="none" xmlns="http://www.w3.org/2000/svg">
<path fill-rule="evenodd" clip-rule="evenodd" d="M7.59151 12.7068C11.2805 12.7068 14.4335 13.2658 14.4335 15.4988C14.4335 17.7318 11.3015 18.3068 7.59151 18.3068C3.90151 18.3068 0.749512 17.7528 0.749512 15.5188C0.749512 13.2848 3.88051 12.7068 7.59151 12.7068Z" stroke="#4F5665" stroke-width="1.5" stroke-linecap="round" stroke-linejoin="round"/>
<path fill-rule="evenodd" clip-rule="evenodd" d="M7.59157 9.51979C5.16957 9.51979 3.20557 7.55679 3.20557 5.13479C3.20557 2.71279 5.16957 0.749786 7.59157 0.749786C10.0126 0.749786 11.9766 2.71279 11.9766 5.13479C11.9856 7.54779 10.0356 9.51079 7.62257 9.51979H7.59157Z" stroke="#4F5665" stroke-width="1.5" stroke-linecap="round" stroke-linejoin="round"/>
<path d="M14.4829 8.38159C16.0839 8.15659 17.3169 6.78259 17.3199 5.11959C17.3199 3.48059 16.1249 2.12059 14.5579 1.86359" stroke="#4F5665" stroke-width="1.5" stroke-linecap="round" stroke-linejoin="round"/>
<path d="M16.5952 12.2322C18.1462 12.4632 19.2292 13.0072 19.2292 14.1272C19.2292 14.8982 18.7192 15.3982 17.8952 15.7112" stroke="#4F5665" stroke-width="1.5" stroke-linecap="round" stroke-linejoin="round"/>
</svg>
