<svg width="197" height="28" viewBox="0 0 197 28" fill="none" xmlns="http://www.w3.org/2000/svg">
<path d="M19.4401 15.0001C19.2201 15.0001 18.9901 14.9301 18.7701 14.8801C18.3246 14.7819 17.8868 14.6516 17.4601 14.4901C16.9962 14.3213 16.4862 14.3301 16.0284 14.5147C15.5706 14.6993 15.1972 15.0467 14.9801 15.4901L14.7601 15.9401C13.7861 15.3983 12.8911 14.7253 12.1001 13.9401C11.3149 13.1491 10.6419 12.2541 10.1001 11.2801L10.5201 11.0001C10.9635 10.783 11.3109 10.4096 11.4955 9.9518C11.6801 9.49396 11.6889 8.98402 11.5201 8.52011C11.3613 8.09253 11.231 7.65491 11.1301 7.21011C11.0801 6.99011 11.0401 6.76011 11.0101 6.53011C10.8887 5.82573 10.5197 5.18785 9.96972 4.73135C9.41972 4.27485 8.7248 4.02972 8.0101 4.04011H5.0101C4.57913 4.03607 4.15235 4.12493 3.75881 4.30064C3.36527 4.47636 3.01421 4.73481 2.72953 5.05839C2.44485 5.38198 2.23324 5.76311 2.10909 6.17583C1.98494 6.58855 1.95118 7.02317 2.0101 7.45011C2.54284 11.6395 4.45613 15.532 7.44775 18.5127C10.4394 21.4935 14.3388 23.3926 18.5301 23.9101H18.9101C19.6475 23.9112 20.3595 23.6406 20.9101 23.1501C21.2265 22.8672 21.4792 22.5203 21.6516 22.1324C21.8239 21.7446 21.9121 21.3245 21.9101 20.9001V17.9001C21.8979 17.2055 21.6449 16.5367 21.1944 16.0078C20.744 15.4789 20.1239 15.1227 19.4401 15.0001ZM19.9401 21.0001C19.9399 21.1421 19.9095 21.2824 19.8509 21.4117C19.7923 21.5411 19.7068 21.6564 19.6001 21.7501C19.4887 21.8471 19.3581 21.9195 19.2168 21.9626C19.0755 22.0057 18.9267 22.0185 18.7801 22.0001C15.035 21.5199 11.5563 19.8066 8.89282 17.1304C6.2293 14.4542 4.53251 10.9674 4.0701 7.22011C4.05419 7.07363 4.06813 6.92544 4.1111 6.7845C4.15407 6.64356 4.22517 6.5128 4.3201 6.40011C4.41381 6.29344 4.52916 6.20795 4.65848 6.14933C4.7878 6.09071 4.92812 6.06029 5.0701 6.06011H8.0701C8.30265 6.05494 8.52972 6.13099 8.71224 6.27518C8.89476 6.41937 9.02131 6.62268 9.0701 6.85011C9.1101 7.12345 9.1601 7.39345 9.2201 7.66011C9.33562 8.18726 9.48936 8.70529 9.6801 9.21011L8.2801 9.86011C8.1604 9.91503 8.05272 9.99306 7.96326 10.0897C7.87379 10.1864 7.8043 10.2997 7.75877 10.4233C7.71324 10.5469 7.69257 10.6782 7.69795 10.8098C7.70332 10.9414 7.73464 11.0707 7.7901 11.1901C9.2293 14.2729 11.7073 16.7509 14.7901 18.1901C15.0336 18.2901 15.3066 18.2901 15.5501 18.1901C15.6748 18.1455 15.7894 18.0766 15.8873 17.9873C15.9851 17.898 16.0643 17.7902 16.1201 17.6701L16.7401 16.2701C17.2571 16.455 17.7847 16.6086 18.3201 16.7301C18.5868 16.7901 18.8568 16.8401 19.1301 16.8801C19.3575 16.9289 19.5608 17.0554 19.705 17.238C19.8492 17.4205 19.9253 17.6476 19.9201 17.8801L19.9401 21.0001Z" fill="white"/>
<path d="M42.872 18V10.8H44.584V18H42.872ZM40.04 15.2V13.6H47.416V15.2H40.04ZM54.0676 20.16C53.0543 20.16 52.185 19.9467 51.4596 19.52C50.7343 19.0827 50.1796 18.4533 49.7956 17.632C49.4116 16.8107 49.2196 15.7973 49.2196 14.592C49.2196 13.312 49.449 12.2293 49.9076 11.344C50.377 10.4587 51.0223 9.78667 51.8436 9.328C52.6756 8.86933 53.6303 8.64 54.7076 8.64C55.273 8.64 55.8116 8.69867 56.3236 8.816C56.8463 8.93333 57.289 9.11467 57.6516 9.36L56.8836 10.928C56.5743 10.7253 56.2383 10.5867 55.8756 10.512C55.5236 10.4267 55.1503 10.384 54.7556 10.384C53.6996 10.384 52.8623 10.7093 52.2436 11.36C51.625 12.0107 51.3156 12.9707 51.3156 14.24C51.3156 14.4427 51.321 14.6827 51.3316 14.96C51.3423 15.2267 51.3796 15.4987 51.4436 15.776L50.8036 15.072C50.9956 14.6347 51.257 14.272 51.5876 13.984C51.929 13.6853 52.329 13.4613 52.7876 13.312C53.257 13.1627 53.7636 13.088 54.3076 13.088C55.0436 13.088 55.6996 13.232 56.2756 13.52C56.8516 13.7973 57.3103 14.1973 57.6516 14.72C57.993 15.232 58.1636 15.8347 58.1636 16.528C58.1636 17.264 57.9823 17.904 57.6196 18.448C57.257 18.992 56.7663 19.4133 56.1476 19.712C55.529 20.0107 54.8356 20.16 54.0676 20.16ZM53.9556 18.528C54.3823 18.528 54.761 18.4533 55.0916 18.304C55.4223 18.144 55.6783 17.92 55.8596 17.632C56.0516 17.344 56.1476 17.008 56.1476 16.624C56.1476 16.0373 55.945 15.5733 55.5396 15.232C55.1343 14.8907 54.5903 14.72 53.9076 14.72C53.4596 14.72 53.065 14.8053 52.7236 14.976C52.393 15.136 52.1263 15.36 51.9236 15.648C51.7316 15.936 51.6356 16.2667 51.6356 16.64C51.6356 16.9813 51.7263 17.296 51.9076 17.584C52.089 17.872 52.3503 18.1013 52.6916 18.272C53.0436 18.4427 53.465 18.528 53.9556 18.528ZM59.1069 20V18.608L63.5549 14.384C63.9282 14.032 64.2055 13.7227 64.3869 13.456C64.5682 13.1893 64.6855 12.944 64.7389 12.72C64.8029 12.4853 64.8349 12.2667 64.8349 12.064C64.8349 11.552 64.6589 11.1573 64.3069 10.88C63.9549 10.592 63.4375 10.448 62.7549 10.448C62.2109 10.448 61.7149 10.544 61.2669 10.736C60.8295 10.928 60.4509 11.2213 60.1309 11.616L58.6749 10.496C59.1122 9.90933 59.6989 9.456 60.4349 9.136C61.1815 8.80533 62.0135 8.64 62.9309 8.64C63.7415 8.64 64.4455 8.77333 65.0429 9.04C65.6509 9.296 66.1149 9.664 66.4349 10.144C66.7655 10.624 66.9309 11.1947 66.9309 11.856C66.9309 12.2187 66.8829 12.5813 66.7869 12.944C66.6909 13.296 66.5095 13.6693 66.2429 14.064C65.9762 14.4587 65.5869 14.9013 65.0749 15.392L61.2509 19.024L60.8189 18.24H67.3629V20H59.1069ZM76.6973 20.16C75.9079 20.16 75.1346 20.048 74.3773 19.824C73.6306 19.5893 73.0013 19.2693 72.4893 18.864L73.3693 17.248C73.7746 17.5787 74.2653 17.8453 74.8413 18.048C75.4279 18.2507 76.0359 18.352 76.6653 18.352C77.4013 18.352 77.9773 18.1973 78.3933 17.888C78.8199 17.5787 79.0333 17.1627 79.0333 16.64C79.0333 16.288 78.9426 15.9787 78.7613 15.712C78.5906 15.4453 78.2813 15.2427 77.8333 15.104C77.3959 14.9653 76.7933 14.896 76.0253 14.896H73.3213L73.8973 8.8H80.4733V10.544H74.6653L75.7533 9.552L75.3213 14.112L74.2333 13.136H76.4893C77.5986 13.136 78.4893 13.2853 79.1613 13.584C79.8439 13.872 80.3399 14.2773 80.6493 14.8C80.9693 15.312 81.1293 15.8987 81.1293 16.56C81.1293 17.2107 80.9693 17.808 80.6493 18.352C80.3293 18.896 79.8386 19.3333 79.1773 19.664C78.5266 19.9947 77.6999 20.16 76.6973 20.16ZM87.177 20.16C86.1637 20.16 85.2943 19.9467 84.569 19.52C83.8437 19.0827 83.289 18.4533 82.905 17.632C82.521 16.8107 82.329 15.7973 82.329 14.592C82.329 13.312 82.5583 12.2293 83.017 11.344C83.4863 10.4587 84.1317 9.78667 84.953 9.328C85.785 8.86933 86.7397 8.64 87.817 8.64C88.3823 8.64 88.921 8.69867 89.433 8.816C89.9557 8.93333 90.3983 9.11467 90.761 9.36L89.993 10.928C89.6837 10.7253 89.3477 10.5867 88.985 10.512C88.633 10.4267 88.2597 10.384 87.865 10.384C86.809 10.384 85.9717 10.7093 85.353 11.36C84.7343 12.0107 84.425 12.9707 84.425 14.24C84.425 14.4427 84.4303 14.6827 84.441 14.96C84.4517 15.2267 84.489 15.4987 84.553 15.776L83.913 15.072C84.105 14.6347 84.3663 14.272 84.697 13.984C85.0383 13.6853 85.4383 13.4613 85.897 13.312C86.3663 13.1627 86.873 13.088 87.417 13.088C88.153 13.088 88.809 13.232 89.385 13.52C89.961 13.7973 90.4197 14.1973 90.761 14.72C91.1023 15.232 91.273 15.8347 91.273 16.528C91.273 17.264 91.0917 17.904 90.729 18.448C90.3663 18.992 89.8757 19.4133 89.257 19.712C88.6383 20.0107 87.945 20.16 87.177 20.16ZM87.065 18.528C87.4917 18.528 87.8703 18.4533 88.201 18.304C88.5317 18.144 88.7877 17.92 88.969 17.632C89.161 17.344 89.257 17.008 89.257 16.624C89.257 16.0373 89.0543 15.5733 88.649 15.232C88.2437 14.8907 87.6997 14.72 87.017 14.72C86.569 14.72 86.1743 14.8053 85.833 14.976C85.5023 15.136 85.2357 15.36 85.033 15.648C84.841 15.936 84.745 16.2667 84.745 16.64C84.745 16.9813 84.8357 17.296 85.017 17.584C85.1983 17.872 85.4597 18.1013 85.801 18.272C86.153 18.4427 86.5743 18.528 87.065 18.528ZM95.8802 20.16C95.0909 20.16 94.3176 20.048 93.5603 19.824C92.8136 19.5893 92.1843 19.2693 91.6723 18.864L92.5683 17.248C92.9736 17.5787 93.4643 17.8453 94.0403 18.048C94.6163 18.2507 95.2189 18.352 95.8483 18.352C96.5949 18.352 97.1763 18.2027 97.5923 17.904C98.0083 17.5947 98.2163 17.1787 98.2163 16.656C98.2163 16.144 98.0243 15.7387 97.6403 15.44C97.2563 15.1413 96.6376 14.992 95.7843 14.992H94.7603V13.568L97.9603 9.76L98.2323 10.544H92.2163V8.8H99.8483V10.192L96.6483 14L95.5603 13.36H96.1843C97.5603 13.36 98.5896 13.6693 99.2723 14.288C99.9656 14.896 100.312 15.68 100.312 16.64C100.312 17.2693 100.152 17.8507 99.8323 18.384C99.5123 18.9173 99.0216 19.3493 98.3603 19.68C97.7096 20 96.8829 20.16 95.8802 20.16ZM103.389 20L108.013 9.632L108.557 10.56H102.205L103.197 9.552V12.464H101.261V8.8H109.965V10.192L105.613 20H103.389ZM120.169 20.16C119.241 20.16 118.435 20.0213 117.753 19.744C117.07 19.4667 116.542 19.0773 116.169 18.576C115.795 18.064 115.609 17.4667 115.609 16.784C115.609 16.1013 115.79 15.5253 116.153 15.056C116.515 14.5867 117.038 14.2293 117.721 13.984C118.403 13.7387 119.219 13.616 120.169 13.616C121.118 13.616 121.934 13.7387 122.617 13.984C123.31 14.2293 123.838 14.592 124.201 15.072C124.574 15.5413 124.761 16.112 124.761 16.784C124.761 17.4667 124.569 18.064 124.185 18.576C123.811 19.0773 123.278 19.4667 122.585 19.744C121.902 20.0213 121.097 20.16 120.169 20.16ZM120.169 18.528C120.937 18.528 121.545 18.368 121.993 18.048C122.441 17.728 122.665 17.2853 122.665 16.72C122.665 16.1653 122.441 15.728 121.993 15.408C121.545 15.088 120.937 14.928 120.169 14.928C119.401 14.928 118.798 15.088 118.361 15.408C117.923 15.728 117.705 16.1653 117.705 16.72C117.705 17.2853 117.923 17.728 118.361 18.048C118.798 18.368 119.401 18.528 120.169 18.528ZM120.169 14.704C119.305 14.704 118.563 14.592 117.945 14.368C117.326 14.1333 116.846 13.7973 116.505 13.36C116.174 12.912 116.009 12.3787 116.009 11.76C116.009 11.12 116.179 10.5707 116.521 10.112C116.873 9.64267 117.363 9.28 117.993 9.024C118.622 8.768 119.347 8.64 120.169 8.64C121.001 8.64 121.731 8.768 122.361 9.024C122.99 9.28 123.481 9.64267 123.833 10.112C124.185 10.5707 124.361 11.12 124.361 11.76C124.361 12.3787 124.19 12.912 123.849 13.36C123.518 13.7973 123.038 14.1333 122.409 14.368C121.779 14.592 121.033 14.704 120.169 14.704ZM120.169 13.424C120.83 13.424 121.353 13.2853 121.737 13.008C122.121 12.72 122.313 12.336 122.313 11.856C122.313 11.3547 122.115 10.9653 121.721 10.688C121.326 10.4107 120.809 10.272 120.169 10.272C119.529 10.272 119.017 10.4107 118.633 10.688C118.249 10.9653 118.057 11.3547 118.057 11.856C118.057 12.336 118.243 12.72 118.617 13.008C119.001 13.2853 119.518 13.424 120.169 13.424ZM130.606 20.16C129.678 20.16 128.873 20.0213 128.19 19.744C127.508 19.4667 126.98 19.0773 126.606 18.576C126.233 18.064 126.046 17.4667 126.046 16.784C126.046 16.1013 126.228 15.5253 126.59 15.056C126.953 14.5867 127.476 14.2293 128.158 13.984C128.841 13.7387 129.657 13.616 130.606 13.616C131.556 13.616 132.372 13.7387 133.054 13.984C133.748 14.2293 134.276 14.592 134.638 15.072C135.012 15.5413 135.198 16.112 135.198 16.784C135.198 17.4667 135.006 18.064 134.622 18.576C134.249 19.0773 133.716 19.4667 133.022 19.744C132.34 20.0213 131.534 20.16 130.606 20.16ZM130.606 18.528C131.374 18.528 131.982 18.368 132.43 18.048C132.878 17.728 133.102 17.2853 133.102 16.72C133.102 16.1653 132.878 15.728 132.43 15.408C131.982 15.088 131.374 14.928 130.606 14.928C129.838 14.928 129.236 15.088 128.798 15.408C128.361 15.728 128.142 16.1653 128.142 16.72C128.142 17.2853 128.361 17.728 128.798 18.048C129.236 18.368 129.838 18.528 130.606 18.528ZM130.606 14.704C129.742 14.704 129.001 14.592 128.382 14.368C127.764 14.1333 127.284 13.7973 126.942 13.36C126.612 12.912 126.446 12.3787 126.446 11.76C126.446 11.12 126.617 10.5707 126.958 10.112C127.31 9.64267 127.801 9.28 128.43 9.024C129.06 8.768 129.785 8.64 130.606 8.64C131.438 8.64 132.169 8.768 132.798 9.024C133.428 9.28 133.918 9.64267 134.27 10.112C134.622 10.5707 134.798 11.12 134.798 11.76C134.798 12.3787 134.628 12.912 134.286 13.36C133.956 13.7973 133.476 14.1333 132.846 14.368C132.217 14.592 131.47 14.704 130.606 14.704ZM130.606 13.424C131.268 13.424 131.79 13.2853 132.174 13.008C132.558 12.72 132.75 12.336 132.75 11.856C132.75 11.3547 132.553 10.9653 132.158 10.688C131.764 10.4107 131.246 10.272 130.606 10.272C129.966 10.272 129.454 10.4107 129.07 10.688C128.686 10.9653 128.494 11.3547 128.494 11.856C128.494 12.336 128.681 12.72 129.054 13.008C129.438 13.2853 129.956 13.424 130.606 13.424ZM141.044 20.16C140.116 20.16 139.31 20.0213 138.628 19.744C137.945 19.4667 137.417 19.0773 137.044 18.576C136.67 18.064 136.484 17.4667 136.484 16.784C136.484 16.1013 136.665 15.5253 137.028 15.056C137.39 14.5867 137.913 14.2293 138.596 13.984C139.278 13.7387 140.094 13.616 141.044 13.616C141.993 13.616 142.809 13.7387 143.492 13.984C144.185 14.2293 144.713 14.592 145.076 15.072C145.449 15.5413 145.636 16.112 145.636 16.784C145.636 17.4667 145.444 18.064 145.06 18.576C144.686 19.0773 144.153 19.4667 143.46 19.744C142.777 20.0213 141.972 20.16 141.044 20.16ZM141.044 18.528C141.812 18.528 142.42 18.368 142.868 18.048C143.316 17.728 143.54 17.2853 143.54 16.72C143.54 16.1653 143.316 15.728 142.868 15.408C142.42 15.088 141.812 14.928 141.044 14.928C140.276 14.928 139.673 15.088 139.236 15.408C138.798 15.728 138.58 16.1653 138.58 16.72C138.58 17.2853 138.798 17.728 139.236 18.048C139.673 18.368 140.276 18.528 141.044 18.528ZM141.044 14.704C140.18 14.704 139.438 14.592 138.82 14.368C138.201 14.1333 137.721 13.7973 137.38 13.36C137.049 12.912 136.884 12.3787 136.884 11.76C136.884 11.12 137.054 10.5707 137.396 10.112C137.748 9.64267 138.238 9.28 138.868 9.024C139.497 8.768 140.222 8.64 141.044 8.64C141.876 8.64 142.606 8.768 143.236 9.024C143.865 9.28 144.356 9.64267 144.708 10.112C145.06 10.5707 145.236 11.12 145.236 11.76C145.236 12.3787 145.065 12.912 144.724 13.36C144.393 13.7973 143.913 14.1333 143.284 14.368C142.654 14.592 141.908 14.704 141.044 14.704ZM141.044 13.424C141.705 13.424 142.228 13.2853 142.612 13.008C142.996 12.72 143.188 12.336 143.188 11.856C143.188 11.3547 142.99 10.9653 142.596 10.688C142.201 10.4107 141.684 10.272 141.044 10.272C140.404 10.272 139.892 10.4107 139.508 10.688C139.124 10.9653 138.932 11.3547 138.932 11.856C138.932 12.336 139.118 12.72 139.492 13.008C139.876 13.2853 140.393 13.424 141.044 13.424ZM146.841 20V18.608L151.289 14.384C151.663 14.032 151.94 13.7227 152.121 13.456C152.303 13.1893 152.42 12.944 152.473 12.72C152.537 12.4853 152.569 12.2667 152.569 12.064C152.569 11.552 152.393 11.1573 152.041 10.88C151.689 10.592 151.172 10.448 150.489 10.448C149.945 10.448 149.449 10.544 149.001 10.736C148.564 10.928 148.185 11.2213 147.865 11.616L146.409 10.496C146.847 9.90933 147.433 9.456 148.169 9.136C148.916 8.80533 149.748 8.64 150.665 8.64C151.476 8.64 152.18 8.77333 152.777 9.04C153.385 9.296 153.849 9.664 154.169 10.144C154.5 10.624 154.665 11.1947 154.665 11.856C154.665 12.2187 154.617 12.5813 154.521 12.944C154.425 13.296 154.244 13.6693 153.977 14.064C153.711 14.4587 153.321 14.9013 152.809 15.392L148.985 19.024L148.553 18.24H155.097V20H146.841ZM164.496 8.64C165.52 8.64 166.389 8.85867 167.104 9.296C167.829 9.72267 168.384 10.3467 168.768 11.168C169.152 11.9893 169.344 13.0027 169.344 14.208C169.344 15.488 169.109 16.5707 168.64 17.456C168.181 18.3413 167.541 19.0133 166.72 19.472C165.898 19.9307 164.944 20.16 163.856 20.16C163.29 20.16 162.752 20.1013 162.24 19.984C161.728 19.8667 161.285 19.6853 160.912 19.44L161.68 17.872C161.989 18.0747 162.325 18.2187 162.688 18.304C163.05 18.3787 163.424 18.416 163.808 18.416C164.864 18.416 165.701 18.0907 166.32 17.44C166.938 16.7893 167.248 15.8293 167.248 14.56C167.248 14.3573 167.242 14.1227 167.232 13.856C167.221 13.5787 167.184 13.3013 167.12 13.024L167.76 13.728C167.578 14.1653 167.317 14.5333 166.976 14.832C166.634 15.12 166.234 15.3387 165.776 15.488C165.317 15.6373 164.81 15.712 164.256 15.712C163.53 15.712 162.874 15.5733 162.288 15.296C161.712 15.008 161.253 14.608 160.912 14.096C160.57 13.5733 160.4 12.9653 160.4 12.272C160.4 11.5253 160.581 10.8853 160.944 10.352C161.306 9.808 161.797 9.38667 162.416 9.088C163.045 8.78933 163.738 8.64 164.496 8.64ZM164.608 10.272C164.181 10.272 163.802 10.352 163.472 10.512C163.141 10.6613 162.88 10.88 162.688 11.168C162.506 11.4453 162.416 11.7813 162.416 12.176C162.416 12.7627 162.618 13.2267 163.024 13.568C163.429 13.9093 163.973 14.08 164.656 14.08C165.104 14.08 165.498 14 165.84 13.84C166.181 13.6693 166.448 13.44 166.64 13.152C166.832 12.8533 166.928 12.5227 166.928 12.16C166.928 11.808 166.837 11.4933 166.656 11.216C166.474 10.928 166.213 10.6987 165.872 10.528C165.53 10.3573 165.109 10.272 164.608 10.272ZM174.527 8.64C175.551 8.64 176.42 8.85867 177.135 9.296C177.86 9.72267 178.415 10.3467 178.799 11.168C179.183 11.9893 179.375 13.0027 179.375 14.208C179.375 15.488 179.14 16.5707 178.671 17.456C178.212 18.3413 177.572 19.0133 176.751 19.472C175.93 19.9307 174.975 20.16 173.887 20.16C173.322 20.16 172.783 20.1013 172.271 19.984C171.759 19.8667 171.316 19.6853 170.943 19.44L171.711 17.872C172.02 18.0747 172.356 18.2187 172.719 18.304C173.082 18.3787 173.455 18.416 173.839 18.416C174.895 18.416 175.732 18.0907 176.351 17.44C176.97 16.7893 177.279 15.8293 177.279 14.56C177.279 14.3573 177.274 14.1227 177.263 13.856C177.252 13.5787 177.215 13.3013 177.151 13.024L177.791 13.728C177.61 14.1653 177.348 14.5333 177.007 14.832C176.666 15.12 176.266 15.3387 175.807 15.488C175.348 15.6373 174.842 15.712 174.287 15.712C173.562 15.712 172.906 15.5733 172.319 15.296C171.743 15.008 171.284 14.608 170.943 14.096C170.602 13.5733 170.431 12.9653 170.431 12.272C170.431 11.5253 170.612 10.8853 170.975 10.352C171.338 9.808 171.828 9.38667 172.447 9.088C173.076 8.78933 173.77 8.64 174.527 8.64ZM174.639 10.272C174.212 10.272 173.834 10.352 173.503 10.512C173.172 10.6613 172.911 10.88 172.719 11.168C172.538 11.4453 172.447 11.7813 172.447 12.176C172.447 12.7627 172.65 13.2267 173.055 13.568C173.46 13.9093 174.004 14.08 174.687 14.08C175.135 14.08 175.53 14 175.871 13.84C176.212 13.6693 176.479 13.44 176.671 13.152C176.863 12.8533 176.959 12.5227 176.959 12.16C176.959 11.808 176.868 11.4933 176.687 11.216C176.506 10.928 176.244 10.6987 175.903 10.528C175.562 10.3573 175.14 10.272 174.639 10.272ZM185.454 20.16C184.569 20.16 183.769 19.936 183.054 19.488C182.35 19.04 181.795 18.3893 181.39 17.536C180.985 16.672 180.782 15.6267 180.782 14.4C180.782 13.1733 180.985 12.1333 181.39 11.28C181.795 10.416 182.35 9.76 183.054 9.312C183.769 8.864 184.569 8.64 185.454 8.64C186.35 8.64 187.15 8.864 187.854 9.312C188.558 9.76 189.113 10.416 189.518 11.28C189.934 12.1333 190.142 13.1733 190.142 14.4C190.142 15.6267 189.934 16.672 189.518 17.536C189.113 18.3893 188.558 19.04 187.854 19.488C187.15 19.936 186.35 20.16 185.454 20.16ZM185.454 18.352C185.977 18.352 186.43 18.2133 186.814 17.936C187.198 17.648 187.497 17.2107 187.71 16.624C187.934 16.0373 188.046 15.296 188.046 14.4C188.046 13.4933 187.934 12.752 187.71 12.176C187.497 11.5893 187.198 11.1573 186.814 10.88C186.43 10.592 185.977 10.448 185.454 10.448C184.953 10.448 184.505 10.592 184.11 10.88C183.726 11.1573 183.422 11.5893 183.198 12.176C182.985 12.752 182.878 13.4933 182.878 14.4C182.878 15.296 182.985 16.0373 183.198 16.624C183.422 17.2107 183.726 17.648 184.11 17.936C184.505 18.2133 184.953 18.352 185.454 18.352ZM193.324 20V9.6L194.236 10.544H190.956V8.8H195.404V20H193.324Z" fill="#EFEFEF"/>
</svg>
