<svg width="48" height="49" viewBox="0 0 48 49" fill="none" xmlns="http://www.w3.org/2000/svg">
<circle cx="24" cy="24.5" r="24" fill="white"/>
<path d="M25.4348 24.7427C26.0236 24.233 26.4958 23.6027 26.8195 22.8944C27.1431 22.1862 27.3107 21.4166 27.3106 20.6378C27.3106 19.1746 26.7294 17.7713 25.6947 16.7366C24.66 15.7019 23.2567 15.1206 21.7934 15.1206C20.3301 15.1206 18.9268 15.7019 17.8921 16.7366C16.8574 17.7713 16.2762 19.1746 16.2762 20.6378C16.2762 21.4166 16.4437 22.1862 16.7673 22.8944C17.091 23.6027 17.5633 24.233 18.152 24.7427C16.6074 25.4421 15.2968 26.5717 14.3771 27.9962C13.4574 29.4208 12.9674 31.0801 12.9658 32.7758C12.9658 33.0684 13.0821 33.3491 13.289 33.556C13.4959 33.763 13.7766 33.8792 14.0693 33.8792C14.3619 33.8792 14.6426 33.763 14.8495 33.556C15.0565 33.3491 15.1727 33.0684 15.1727 32.7758C15.1727 31.0199 15.8703 29.3359 17.1119 28.0942C18.3535 26.8526 20.0375 26.1551 21.7934 26.1551C23.5493 26.1551 25.2333 26.8526 26.4749 28.0942C27.7166 29.3359 28.4141 31.0199 28.4141 32.7758C28.4141 33.0684 28.5304 33.3491 28.7373 33.556C28.9442 33.763 29.2249 33.8792 29.5175 33.8792C29.8102 33.8792 30.0909 33.763 30.2978 33.556C30.5047 33.3491 30.621 33.0684 30.621 32.7758C30.6194 31.0801 30.1294 29.4208 29.2097 27.9962C28.29 26.5717 26.9795 25.4421 25.4348 24.7427ZM21.7934 23.9482C21.1387 23.9482 20.4987 23.754 19.9543 23.3903C19.4099 23.0266 18.9856 22.5095 18.735 21.9047C18.4845 21.2998 18.4189 20.6342 18.5467 19.992C18.6744 19.3499 18.9897 18.76 19.4526 18.2971C19.9156 17.8341 20.5054 17.5188 21.1476 17.3911C21.7897 17.2634 22.4553 17.3289 23.0602 17.5795C23.6651 17.83 24.1821 18.2543 24.5459 18.7987C24.9096 19.3431 25.1038 19.9831 25.1038 20.6378C25.1038 21.5158 24.755 22.3578 24.1342 22.9786C23.5134 23.5994 22.6714 23.9482 21.7934 23.9482ZM34.7148 21.333C34.6122 21.2296 34.4902 21.1475 34.3557 21.0915C34.2212 21.0355 34.077 21.0066 33.9313 21.0066C33.7857 21.0066 33.6414 21.0355 33.507 21.0915C33.3725 21.1475 33.2505 21.2296 33.1479 21.333L30.941 23.5399L30.2569 22.8447C30.1543 22.7413 30.0322 22.6592 29.8978 22.6032C29.7633 22.5472 29.6191 22.5183 29.4734 22.5183C29.3277 22.5183 29.1835 22.5472 29.049 22.6032C28.9146 22.6592 28.7925 22.7413 28.69 22.8447C28.4844 23.0515 28.3691 23.3312 28.3691 23.6227C28.3691 23.9142 28.4844 24.1939 28.69 24.4006L30.1686 25.8792C30.3753 26.0847 30.655 26.2001 30.9465 26.2001C31.238 26.2001 31.5177 26.0847 31.7244 25.8792L34.6706 22.933C34.7821 22.833 34.8719 22.7113 34.9348 22.5754C34.9977 22.4395 35.0322 22.2922 35.0364 22.1425C35.0405 21.9928 35.0141 21.8439 34.9588 21.7047C34.9035 21.5655 34.8205 21.4391 34.7148 21.333Z" fill="#2948FF"/>
</svg>
