<svg width="48" height="49" viewBox="0 0 48 49" fill="none" xmlns="http://www.w3.org/2000/svg">
<circle cx="24" cy="24.5" r="24" fill="white"/>
<path d="M17.3795 23.3964C17.1613 23.3964 16.948 23.4612 16.7665 23.5824C16.585 23.7037 16.4436 23.876 16.3601 24.0776C16.2766 24.2793 16.2547 24.5011 16.2973 24.7152C16.3399 24.9292 16.445 25.1258 16.5993 25.2802C16.7536 25.4345 16.9502 25.5396 17.1643 25.5821C17.3783 25.6247 17.6002 25.6029 17.8018 25.5193C18.0034 25.4358 18.1758 25.2944 18.297 25.1129C18.4183 24.9315 18.483 24.7181 18.483 24.4999C18.483 24.2072 18.3667 23.9266 18.1598 23.7196C17.9529 23.5127 17.6722 23.3964 17.3795 23.3964ZM30.6209 23.3964C30.4027 23.3964 30.1893 23.4612 30.0079 23.5824C29.8264 23.7037 29.685 23.876 29.6015 24.0776C29.518 24.2793 29.4961 24.5011 29.5387 24.7152C29.5813 24.9292 29.6863 25.1258 29.8407 25.2802C29.995 25.4345 30.1916 25.5396 30.4057 25.5821C30.6197 25.6247 30.8416 25.6029 31.0432 25.5193C31.2448 25.4358 31.4172 25.2944 31.5384 25.1129C31.6597 24.9315 31.7244 24.7181 31.7244 24.4999C31.7244 24.2072 31.6081 23.9266 31.4012 23.7196C31.1942 23.5127 30.9136 23.3964 30.6209 23.3964ZM32.8278 16.7758H15.1726C14.2947 16.7758 13.4527 17.1245 12.8319 17.7453C12.2111 18.3661 11.8623 19.2081 11.8623 20.0861V28.9137C11.8623 29.7916 12.2111 30.6336 12.8319 31.2545C13.4527 31.8753 14.2947 32.224 15.1726 32.224H32.8278C33.7058 32.224 34.5478 31.8753 35.1686 31.2545C35.7894 30.6336 36.1382 29.7916 36.1382 28.9137V20.0861C36.1382 19.2081 35.7894 18.3661 35.1686 17.7453C34.5478 17.1245 33.7058 16.7758 32.8278 16.7758ZM33.9313 28.9137C33.9313 29.2063 33.815 29.487 33.6081 29.6939C33.4011 29.9009 33.1205 30.0171 32.8278 30.0171H15.1726C14.88 30.0171 14.5993 29.9009 14.3924 29.6939C14.1855 29.487 14.0692 29.2063 14.0692 28.9137V20.0861C14.0692 19.7934 14.1855 19.5128 14.3924 19.3058C14.5993 19.0989 14.88 18.9827 15.1726 18.9827H32.8278C33.1205 18.9827 33.4011 19.0989 33.6081 19.3058C33.815 19.5128 33.9313 19.7934 33.9313 20.0861V28.9137ZM24.0002 21.1895C23.3455 21.1895 22.7055 21.3837 22.1611 21.7474C21.6167 22.1112 21.1924 22.6282 20.9419 23.2331C20.6913 23.838 20.6258 24.5036 20.7535 25.1457C20.8812 25.7879 21.1965 26.3777 21.6595 26.8407C22.1224 27.3036 22.7123 27.6189 23.3544 27.7466C23.9966 27.8744 24.6622 27.8088 25.267 27.5583C25.8719 27.3077 26.3889 26.8834 26.7527 26.339C27.1164 25.7946 27.3106 25.1546 27.3106 24.4999C27.3106 23.6219 26.9618 22.7799 26.341 22.1591C25.7202 21.5383 24.8782 21.1895 24.0002 21.1895ZM24.0002 25.6033C23.782 25.6033 23.5687 25.5386 23.3872 25.4174C23.2057 25.2961 23.0643 25.1238 22.9808 24.9222C22.8973 24.7205 22.8754 24.4987 22.918 24.2846C22.9606 24.0706 23.0657 23.874 23.22 23.7196C23.3743 23.5653 23.5709 23.4602 23.785 23.4176C23.999 23.3751 24.2209 23.3969 24.4225 23.4804C24.6241 23.564 24.7965 23.7054 24.9177 23.8869C25.039 24.0683 25.1037 24.2817 25.1037 24.4999C25.1037 24.7925 24.9874 25.0732 24.7805 25.2802C24.5736 25.4871 24.2929 25.6033 24.0002 25.6033Z" fill="#2948FF"/>
</svg>
