<svg width="33" height="32" viewBox="0 0 33 32" fill="none" xmlns="http://www.w3.org/2000/svg">
<path fill-rule="evenodd" clip-rule="evenodd" d="M17.3203 2.80065L26.1771 5.82324C27.1677 6.1619 27.8332 7.07388 27.8332 8.09519V16.9496C27.8332 19.6336 26.8357 22.2322 25.0259 24.2601C24.1972 25.1894 23.1338 25.9881 21.7755 26.7027L16.9883 29.216C16.8387 29.2933 16.6741 29.3333 16.5081 29.3333C16.3434 29.3333 16.1788 29.2933 16.0292 29.216L11.2324 26.7014C9.87135 25.9854 8.80662 25.1868 7.97926 24.2614C6.16675 22.2308 5.1665 19.6309 5.1665 16.9443C5.1665 16.403 5.61929 15.963 6.17635 15.963C6.73341 15.963 7.1862 16.403 7.1862 16.9443C7.1862 19.1602 8.00944 21.3015 9.50363 22.9762C10.1691 23.7215 11.0486 24.3748 12.1915 24.9748L16.5081 27.2374L20.815 24.9761C21.9552 24.3774 22.8347 23.7241 23.5015 22.9762C24.993 21.3029 25.8148 19.1642 25.8148 16.9496V8.09519C25.8148 7.90586 25.6914 7.73786 25.5089 7.6752L16.6521 4.65261C16.5547 4.61927 16.4463 4.61927 16.3475 4.65261L7.49217 7.6752C7.30968 7.73786 7.1862 7.90586 7.1862 8.09519V10.6285C7.1862 11.1711 6.73341 11.6111 6.17635 11.6111C5.61929 11.6111 5.1665 11.1711 5.1665 10.6285V8.09519C5.1665 7.07388 5.83333 6.1619 6.82397 5.82324L15.6793 2.80065C16.209 2.62199 16.7921 2.62199 17.3203 2.80065ZM15.5482 19.09C15.2792 19.09 15.024 18.986 14.8347 18.802L12.2881 16.3274C11.8943 15.9434 11.8943 15.3247 12.2881 14.9407C12.6833 14.5568 13.3213 14.5568 13.7151 14.9407L15.5482 16.7207L20.0788 12.3195C20.4725 11.9368 21.1119 11.9368 21.5057 12.3195C21.8995 12.7021 21.8995 13.3235 21.5057 13.7061L16.2616 18.802C16.0723 18.986 15.8157 19.09 15.5482 19.09Z" fill="#2948FF"/>
</svg>
