<svg width="18" height="13" viewBox="0 0 18 13" fill="none" xmlns="http://www.w3.org/2000/svg">
<path d="M6.36869 5.892C7.42469 6.596 7.95269 7.588 7.95269 8.868C7.95269 10.116 7.56869 11.108 6.80069 11.844C6.06469 12.58 5.12069 12.948 3.96869 12.948C2.84869 12.948 1.90469 12.596 1.13669 11.892C0.400688 11.188 0.0326876 10.276 0.0326876 9.156C0.0326876 8.036 0.384688 6.932 1.08869 5.844L4.59269 0.756H8.52869L6.36869 5.892ZM15.2487 5.892C16.3047 6.596 16.8327 7.588 16.8327 8.868C16.8327 10.116 16.4487 11.108 15.6807 11.844C14.9447 12.58 14.0007 12.948 12.8487 12.948C11.7287 12.948 10.7847 12.596 10.0167 11.892C9.28069 11.188 8.91269 10.276 8.91269 9.156C8.91269 8.036 9.26469 6.932 9.96869 5.844L13.4727 0.756H17.4087L15.2487 5.892Z" fill="#0B132A"/>
</svg>
